<?xml version="1.0" encoding="UTF-8" standalone="no" ?>
<!DOCTYPE svg PUBLIC "-//W3C//DTD SVG 1.1//EN" "http://www.w3.org/Graphics/SVG/1.1/DTD/svg11.dtd">
<svg xmlns="http://www.w3.org/2000/svg" xmlns:xlink="http://www.w3.org/1999/xlink" version="1.1" width="500" height="500" viewBox="0 0 500 500" xml:space="preserve">
<desc>Created with Fabric.js 4.6.0</desc>
<defs>
</defs>
<g transform="matrix(1.06 0 0 0.15 245.54 312.61)" id="hET4Zs1k-GfESJBF0Rfsh"  >
<path style="stroke: rgb(42,93,209); stroke-width: 0; stroke-dasharray: none; stroke-linecap: butt; stroke-dashoffset: 0; stroke-linejoin: miter; stroke-miterlimit: 4; fill: rgb(0,0,0); fill-rule: nonzero; opacity: 1;" vector-effect="non-scaling-stroke"  transform=" translate(0, 0)" d="M -71.42857 -71.42858 L 71.42857 -71.42858 L 71.42857 71.42858 L -71.42857 71.42858 z" stroke-linecap="round" />
</g>
<g transform="matrix(1 0 0 1 263.58 242.18)" id="EuSCs-M0IdiD1kbOb0mSC"  >
<g style="" vector-effect="non-scaling-stroke"   >
		<g transform="matrix(1 0 0 1 -13.58 7.82)" id="mVbUcZunOwAdMYFS8Ug18"  >
<path style="stroke: rgb(0,0,0); stroke-width: 1; stroke-dasharray: none; stroke-linecap: butt; stroke-dashoffset: 0; stroke-linejoin: miter; stroke-miterlimit: 4; fill: rgb(0,0,0); fill-rule: nonzero; opacity: 1;" vector-effect="non-scaling-stroke"  transform=" translate(-129.49, -175.88)" d="M 129.49159 0 L 258.98319000000004 351.7605 L 5.684341886080802e-14 351.7605 z M 26.82295 333.43891 L 227.30024 333.43891 L 129.48917 40.16160000000002 z" stroke-linecap="round" />
</g>
		<g transform="matrix(0.13 0.07 0.85 -1.47 43.11 -40)" id="w8jk75bt_dF9IlbCdy6zV"  >
<path style="stroke: rgb(42,93,209); stroke-width: 0; stroke-dasharray: none; stroke-linecap: butt; stroke-dashoffset: 0; stroke-linejoin: miter; stroke-miterlimit: 4; fill: rgb(0,0,0); fill-rule: nonzero; opacity: 1;" vector-effect="non-scaling-stroke"  transform=" translate(0, 0)" d="M -71.42857 -71.42858 L 71.42857 -71.42858 L 71.42857 71.42858 L -71.42857 71.42858 z" stroke-linecap="round" />
</g>
		<g transform="matrix(1 0 0 1 100.71 -141.34)" id="GkmXtY4ZTrNb9FD-BGGsM"  >
<path style="stroke: rgb(65,80,131); stroke-width: 0; stroke-dasharray: none; stroke-linecap: butt; stroke-dashoffset: 0; stroke-linejoin: miter; stroke-miterlimit: 4; fill: rgb(0,0,0); fill-rule: nonzero; opacity: 1;" vector-effect="non-scaling-stroke"  transform=" translate(-42.86, -42.86)" d="M 42.85715 0 C 66.51428999999999 0 85.7143 19.2 85.7143 42.85715 C 85.7143 66.51428999999999 66.51429999999999 85.7143 42.85715 85.7143 C 19.20001 85.7143 0 66.51429999999999 0 42.85715 C 0 19.20001 19.2 0 42.85715 0 z M 17.22061 42.85714 C 17.22061 57.00851 28.70578 68.49367000000001 42.85714 68.49367000000001 C 57.00851 68.49367000000001 68.49367000000001 57.00850000000001 68.49367000000001 42.85714000000001 C 68.49367000000001 28.70577000000001 57.00850000000001 17.220610000000008 42.85714000000001 17.220610000000008 C 28.70577000000001 17.220610000000008 17.220610000000008 28.705780000000008 17.220610000000008 42.85714000000001 z" stroke-linecap="round" />
</g>
</g>
</g>
</svg>